<svg width="31" height="31" viewBox="0 0 31 31" fill="none" xmlns="http://www.w3.org/2000/svg">
<g id="&#240;&#159;&#166;&#134; icon &#34;menu icon&#34;">
<g id="Group">
<path id="Vector" d="M25.7372 14.1202H5.0703C4.39681 14.1202 3.85083 14.6662 3.85083 15.3397V15.4681C3.85083 16.1416 4.39681 16.6876 5.0703 16.6876H25.7372C26.4107 16.6876 26.9566 16.1416 26.9566 15.4681V15.3397C26.9566 14.6662 26.4107 14.1202 25.7372 14.1202Z" fill="#6F42C1"/>
<path id="Vector_2" d="M25.7372 20.5385H5.0703C4.39681 20.5385 3.85083 21.0844 3.85083 21.7579V21.8863C3.85083 22.5598 4.39681 23.1058 5.0703 23.1058H25.7372C26.4107 23.1058 26.9566 22.5598 26.9566 21.8863V21.7579C26.9566 21.0844 26.4107 20.5385 25.7372 20.5385Z" fill="#6F42C1"/>
<path id="Vector_3" d="M25.7373 7.7019H5.07043C4.39693 7.7019 3.85095 8.24788 3.85095 8.92138V9.04974C3.85095 9.72324 4.39693 10.2692 5.07043 10.2692H25.7373C26.4108 10.2692 26.9568 9.72324 26.9568 9.04974V8.92138C26.9568 8.24788 26.4108 7.7019 25.7373 7.7019Z" fill="#6F42C1"/>
</g>
</g>
</svg>
